<svg xmlns="http://www.w3.org/2000/svg" fill="#fff"  width="182.876" height="90.863" viewBox="0 0 182.876 90.863">
    <g id="AOK_logo_W_Fill" transform="translate(.5 .5)">
        <path id="제외_2" stroke="rgba(0,0,0,0)" stroke-miterlimit="10" d="M44.932 89.863A44.983 44.983 0 0 1 0 44.931v-.3A44.591 44.591 0 0 1 44.629 0h.3a44.932 44.932 0 1 1 0 89.863zm-4.395-40.606H48.9l4.97 17.324h16.397l-4.941-17.324h5.979V45.42h-7.1l-.787-2.769h7.884v-3.78h-8.97l-5.575-19.516H32.691l-5.576 19.516H18.15v3.78h7.877l-.787 2.769h-7.09v3.837h5.972l-4.934 17.324H35.6l4.94-17.324zm22.805 13.537h-4.709L54.76 49.257h4.71l3.872 13.536zm-32.528 0H26.1l3.881-13.537h4.711l-3.877 13.537zM58.381 45.42h-4.739l-.786-2.769h4.716l.808 2.768zm-10.567 0h-6.159l.794-2.769h4.558l.808 2.768zm-12.008 0h-4.717l.787-2.769h4.709l-.779 2.769zm20.678-6.549H51.8l-4.086-14.222h4.716l4.052 14.222zm-10.537 0h-2.409l1.19-4.212 1.219 4.211zm-8.273 0h-4.71l4.053-14.223h4.717l-4.06 14.223z"/>
        <g id="그룹_4" transform="translate(105.757 28.605)">
            <path id="패스_7" d="M312.081 266.579h10.147l7.532 29.661h-4.194l-1.923-6.632H310.45l-1.84 6.675h-4.153zm-.731 19.047h11.439l-3.81-15.194h-3.732z" class="cls-2" transform="translate(-304.457 -266.112)"/>
            <path id="패스_8" d="M345.944 281.356c0-9.839 2.652-15.489 11.813-15.489s11.85 5.608 11.85 15.489c0 10.1-2.648 15.152-11.85 15.152-9.157 0-11.813-5.22-11.813-15.152zm19.345 0c0-7.356-1.414-11.468-7.532-11.468s-7.536 4.066-7.536 11.468c0 7.448 1.373 11.13 7.536 11.13 6.204 0 7.532-3.509 7.532-11.13z" class="cls-2" transform="translate(-318.716 -265.867)"/>
            <path id="패스_9" d="M398.672 283.7l-4.621.257v12.328H389.9v-29.7h4.15v13.356l4.534-.257 6.636-13.1h4.837l-7.746 14.851 8.132 14.853h-4.883z" class="cls-2" transform="translate(-333.824 -266.112)"/>
        </g>
    </g>
</svg>
